<?xml version="1.0" encoding="UTF-8"?>
<svg version="1.1" xmlns="http://www.w3.org/2000/svg" width="32" height="33">
<path d="M0 0 C10.56 0 21.12 0 32 0 C32 10.89 32 21.78 32 33 C21.44 33 10.88 33 0 33 C0 22.11 0 11.22 0 0 Z " fill="#7250A7" transform="translate(0,0)"/>
<path d="M0 0 C1.54185726 4.38212062 0.08498902 7.34589312 -1.40625 11.5625 C-2.03962925 14.16268849 -1.87694297 15.50763577 -1 18 C-6.44535609 21.38495108 -11.67721029 21.67373505 -18 22 C-19.14755203 16.574374 -20.03576861 11.93312398 -17 7 C-15.68 7 -14.36 7 -13 7 C-12.67 6.01 -12.34 5.02 -12 4 C-11.01 4 -10.02 4 -9 4 C-9 3.01 -9 2.02 -9 1 C-5.92677456 0.08941469 -3.19902639 -0.08886184 0 0 Z " fill="#B2B2B3" transform="translate(26,6)"/>
<path d="M0 0 C1.10844919 3.32534757 0.84454356 5.62182575 0 9 C-0.66 9 -1.32 9 -2 9 C-2 7.68 -2 6.36 -2 5 C-7.37837562 7.23005818 -11.54616344 10.31537638 -15 15 C-15.82248564 17.49164768 -15.94576693 19.34257962 -16 22 C-16.99 21.67 -17.98 21.34 -19 21 C-19.05437607 19.41705218 -19.09296271 17.83355744 -19.125 16.25 C-19.14820313 15.36828125 -19.17140625 14.4865625 -19.1953125 13.578125 C-18.99139502 10.8864142 -18.36551721 9.30095026 -17 7 C-15.68 7 -14.36 7 -13 7 C-12.67 6.01 -12.34 5.02 -12 4 C-11.01 4 -10.02 4 -9 4 C-9 3.01 -9 2.02 -9 1 C-5.92677456 0.08941469 -3.19902639 -0.08886184 0 0 Z " fill="#BCBCBD" transform="translate(26,6)"/>
<path d="M0 0 C0.66 0.33 1.32 0.66 2 1 C1.4375 2.875 1.4375 2.875 0 5 C-5.01726146 7.06593119 -8.72564618 7.07639874 -14 6 C-12 3 -12 3 -9.6875 2.3046875 C-8.3571875 2.09199219 -8.3571875 2.09199219 -7 1.875 C-3.37985483 1.30961977 -3.37985483 1.30961977 0 0 Z " fill="#654791" transform="translate(23,24)"/>
<path d="M0 0 C0.99 0 1.98 0 3 0 C2.66466224 3.12981912 1.99933599 4.00061159 -0.375 6.1875 C-3 8 -3 8 -6 9 C-5.67 7.02 -5.34 5.04 -5 3 C-3.68 3 -2.36 3 -1 3 C-0.67 2.01 -0.34 1.02 0 0 Z " fill="#CFCDD2" transform="translate(14,10)"/>
<path d="M0 0 C0.33 1.32 0.66 2.64 1 4 C-1.95664519 5.4783226 -4.74229737 5.06032783 -8 5 C-8.33 3.68 -8.66 2.36 -9 1 C-5.92677456 0.08941469 -3.19902639 -0.08886184 0 0 Z " fill="#DBD9DE" transform="translate(26,6)"/>
<path d="M0 0 C0.99 0.33 1.98 0.66 3 1 C3 4.3 3 7.6 3 11 C2.01 10.67 1.02 10.34 0 10 C0 6.7 0 3.4 0 0 Z " fill="#C2BFC6" transform="translate(7,17)"/>
<path d="M0 0 C0.33 0.66 0.66 1.32 1 2 C3.64 1.67 6.28 1.34 9 1 C9 1.99 9 2.98 9 4 C6.36 4 3.72 4 1 4 C0.67 2.68 0.34 1.36 0 0 Z " fill="#CCCACF" transform="translate(17,7)"/>
</svg>
